<svg width="140" height="24" viewBox="0 0 140 24" fill="none" xmlns="http://www.w3.org/2000/svg">
<path d="M7.74857 17.7046C3.90789 17.7046 1.19007 16.4215 0 15.342L2.54898 11.6297C4.14558 12.9795 6.11755 13.6552 7.74857 13.6552C9.14191 13.6552 9.75333 13.2498 9.75333 12.5073C9.75333 11.9342 9.27796 11.4945 7.783 11.1575L4.75864 10.4492C1.8015 9.77188 0.408165 7.98247 0.408165 5.51897C0.408165 2.14366 3.12598 0.152344 7.16993 0.152344C10.2959 0.152344 12.8105 1.09671 14.035 2.17785L11.486 5.8902C10.3648 4.87745 8.73374 4.13498 7.16993 4.13498C5.87823 4.13498 5.30122 4.5746 5.30122 5.24868C5.30122 5.92276 5.91265 6.29563 7.0683 6.56428L10.0927 7.24C13.1842 7.91571 14.6808 9.56835 14.6808 11.9993C14.6808 15.4755 12.063 17.7046 7.74857 17.7046ZM25.8947 17.3659H30.9927V8.28694C30.9927 6.05954 32.0794 4.67555 34.1875 4.67555C36.1922 4.67555 37.2463 5.82344 37.2463 8.28694V17.3675H42.3442V7.0039C42.3442 2.4807 40.0673 0.152344 36.1595 0.152344C33.917 0.152344 32.2171 1.02996 30.9943 2.75099V1.67148C30.9943 0.929006 30.5533 0.489386 29.8042 0.489386H25.8963V17.3659H25.8947ZM63.0049 0.489386V15.1043C63.0049 21.4495 58.8593 23.9814 53.7614 23.9814C50.3633 23.9814 47.5422 23.1038 45.8439 21.5846L48.4946 17.6688C49.6158 18.7483 51.4173 19.7285 53.7614 19.7285C56.3775 19.7285 57.9069 18.0742 57.9069 15.78V14.7005C56.6841 16.2196 54.917 16.8937 52.7418 16.8937C48.6306 16.8937 45.062 13.3165 45.062 8.52304C45.062 3.72955 48.6306 0.152344 52.7418 0.152344C54.917 0.152344 56.7513 0.963199 57.9069 2.68423V1.67148C57.9069 0.929006 58.3495 0.489386 59.097 0.489386H63.0049ZM58.0774 8.52304C58.0774 6.32982 56.412 4.60716 54.1023 4.60716C51.9615 4.60716 50.2288 6.32819 50.2288 8.52304C50.2288 10.7163 51.9615 12.4389 54.1023 12.4389C56.412 12.4389 58.0774 10.7163 58.0774 8.52304ZM85.2966 8.92846C85.2966 14.1274 81.728 17.7046 77.3103 17.7046C74.999 17.7046 73.1647 17.0289 71.8386 15.5114V23.5792H66.7407V0.489386H70.6502C71.3977 0.489386 71.8403 0.929006 71.8403 1.67148V2.68423C73.0975 0.963199 75.0007 0.152344 77.312 0.152344C81.7297 0.152344 85.2966 3.72955 85.2966 8.92846ZM80.1314 8.92846C80.1314 6.39658 78.3299 4.60716 75.9514 4.60716C73.5385 4.60716 71.6698 6.39658 71.6698 8.92846C71.6698 11.4604 73.5385 13.2498 75.9514 13.2498C78.3316 13.2481 80.1314 11.4587 80.1314 8.92846ZM106.026 0.489386V17.3659H100.928V15.1727C99.6709 16.8937 97.7677 17.7046 95.4565 17.7046C91.0388 17.7046 87.4702 14.1274 87.4702 8.92846C87.4702 3.72955 91.0388 0.152344 95.4565 0.152344C97.7677 0.152344 99.6709 0.963199 100.928 2.68423V1.67148C100.928 0.929006 101.371 0.489386 102.118 0.489386H106.026ZM101.099 8.92846C101.099 6.39658 99.2299 4.60716 96.817 4.60716C94.4385 4.60716 92.637 6.39658 92.637 8.92846C92.637 11.4604 94.4385 13.2498 96.817 13.2498C99.2299 13.2481 101.099 11.4587 101.099 8.92846ZM116.358 17.7046C120.674 17.7046 123.29 15.4772 123.29 12.0009C123.29 9.56998 121.795 7.91734 118.702 7.24163L115.678 6.56591C114.522 6.29563 113.911 5.92439 113.911 5.25031C113.911 4.57622 114.488 4.1366 115.779 4.1366C117.343 4.1366 118.974 4.87907 120.095 5.89183L122.644 2.17948C121.422 1.09997 118.907 0.153972 115.779 0.153972C111.735 0.153972 109.018 2.14529 109.018 5.52059C109.018 7.98409 110.411 9.77351 113.368 10.4492L116.393 11.1575C117.887 11.4945 118.363 11.9342 118.363 12.5073C118.363 13.2498 117.751 13.6552 116.358 13.6552C114.727 13.6552 112.757 12.9795 111.158 11.6297L108.61 15.342C109.8 16.4215 112.517 17.7046 116.358 17.7046ZM132.465 17.7046C136.781 17.7046 139.397 15.4772 139.397 12.0009C139.397 9.56998 137.902 7.91734 134.809 7.24163L131.785 6.56591C130.629 6.29563 130.018 5.92439 130.018 5.25031C130.018 4.57622 130.595 4.1366 131.886 4.1366C133.45 4.1366 135.081 4.87907 136.202 5.89183L138.751 2.17948C137.529 1.09997 135.014 0.153972 131.886 0.153972C127.842 0.153972 125.125 2.14529 125.125 5.52059C125.125 7.98409 126.518 9.77351 129.475 10.4492L132.499 11.1575C133.994 11.4945 134.47 11.9342 134.47 12.5073C134.47 13.2498 133.858 13.6552 132.465 13.6552C130.834 13.6552 128.864 12.9795 127.265 11.6297L124.716 15.342C125.907 16.4215 128.626 17.7046 132.465 17.7046Z" fill="white"/>
<path d="M19.7095 5.89025C21.3749 5.89025 22.6666 4.60721 22.6666 2.95294C22.6666 1.29866 21.3749 0.015625 19.7095 0.015625C18.044 0.015625 16.7523 1.29866 16.7523 2.95294C16.754 4.60721 18.044 5.89025 19.7095 5.89025ZM16.5146 17.366H22.9027L21.5438 6.86881C20.5242 7.17329 18.8931 7.17329 17.8736 6.86881L16.5146 17.366Z" fill="white"/>
</svg>
